<?xml version="1.0" encoding="UTF-8"?>
<svg width="24px" height="24px" viewBox="0 0 24 24" version="1.1" xmlns="http://www.w3.org/2000/svg" xmlns:xlink="http://www.w3.org/1999/xlink">
    <title>DEEBFB08-E99B-4954-8089-0F4E23BEB005</title>
    <g id="Pages" stroke="none" stroke-width="1" fill="none" fill-rule="evenodd">
        <g id="Home" transform="translate(-436.000000, -1210.000000)" fill-rule="nonzero">
            <g id="Group-5" transform="translate(60.000000, 971.000000)">
                <g id="Icon/News/Benefits" transform="translate(376.000000, 239.000000)">
                    <g id="gift" transform="translate(0.000000, 0.600000)">
                        <path d="M1.23076923,12.1621622 L1.23076923,21.023166 C1.23076923,21.8383784 1.92153846,22.5 2.76923077,22.5 L10.4615385,22.5 L10.4615385,12.1621622 L1.23076923,12.1621622 Z" id="Path" fill="#1E1E50"></path>
                        <path d="M22.5,5.89511858 L17.754,5.89511858 C18.0945,5.66557809 18.387,5.4375185 18.591,5.23315341 C19.8015,4.0321383 19.8015,2.07734183 18.591,0.876326725 C17.415,-0.293589346 15.366,-0.290627533 14.1915,0.876326725 C13.5405,1.52052102 11.8155,4.14320629 12.054,5.89511858 L11.946,5.89511858 C12.183,4.14320629 10.458,1.52052102 9.8085,0.876326725 C8.6325,-0.290627533 6.5835,-0.290627533 5.409,0.876326725 C4.2,2.07734183 4.2,4.0321383 5.4075,5.23315341 C5.613,5.4375185 5.9055,5.66557809 6.246,5.89511858 L1.5,5.89511858 C0.6735,5.89511858 0,6.56004556 0,7.376025 L0,9.59738463 C0,10.0061148 0.336,10.3378378 0.75,10.3378378 L10.5,10.3378378 L10.5,7.376025 L13.5,7.376025 L13.5,10.3378378 L23.25,10.3378378 C23.664,10.3378378 24,10.0061148 24,9.59738463 L24,7.376025 C24,6.56004556 23.328,5.89511858 22.5,5.89511858 Z M10.4115,5.84624867 C10.4115,5.84624867 10.3485,5.89511858 10.134,5.89511858 C9.0975,5.89511858 7.119,4.83182777 6.4725,4.18911439 C5.844,3.56417188 5.844,2.54530826 6.4725,1.92036575 C6.777,1.61826084 7.1805,1.45239932 7.6095,1.45239932 C8.037,1.45239932 8.4405,1.61826084 8.745,1.92036575 C9.756,2.9244203 10.761,5.48935022 10.4115,5.84624867 Z M13.8645,5.89511858 C13.6515,5.89511858 13.5885,5.84772957 13.5885,5.84624867 C13.239,5.48935022 14.244,2.9244203 15.255,1.92036575 C15.8595,1.31763684 16.917,1.31467503 17.5275,1.92036575 C18.1575,2.54530826 18.1575,3.56417188 17.5275,4.18911439 C16.881,4.83182777 14.9025,5.89511858 13.8645,5.89511858 Z" id="Shape" fill="#32BEF0"></path>
                        <path d="M13.5384615,12.1621622 L13.5384615,22.5 L21.2307692,22.5 C22.08,22.5 22.7692308,21.8383784 22.7692308,21.023166 L22.7692308,12.1621622 L13.5384615,12.1621622 Z" id="Path" fill="#1E1E50"></path>
                    </g>
                </g>
            </g>
        </g>
    </g>
</svg>