<?xml version="1.0" encoding="UTF-8"?>
<svg width="32px" height="32px" viewBox="0 0 32 32" version="1.1" xmlns="http://www.w3.org/2000/svg" xmlns:xlink="http://www.w3.org/1999/xlink">
    <title>E26B1581-FFAB-455B-8522-0EF838850155</title>
    <g id="Pages" stroke="none" stroke-width="1" fill="none" fill-rule="evenodd">
        <g id="Home" transform="translate(-104.000000, -843.000000)">
            <g id="Group-3" transform="translate(60.000000, 751.000000)">
                <g id="Tab-Navigation/News-Tabs" transform="translate(0.000000, 92.000000)">
                    <g id="Icon/Grid/Fill" transform="translate(44.000000, 0.000000)">
                        <polygon id="24pt-Bounding-Box" opacity="0" fill-rule="nonzero" points="0 0 32 0 32 32 0 32"></polygon>
                        <path d="M11.9999999,17.3333333 C13.4727584,17.3333333 14.6666664,18.5272404 14.6666664,20.0000004 L14.6666664,20.0000004 L14.6666664,25.3333333 C14.6666664,26.8060937 13.4727598,28.0000004 11.9999999,28.0000004 L11.9999999,28.0000004 L6.66666655,28.0000004 C5.19390788,28.0000004 3.99999988,26.8060937 3.99999988,25.3333333 L3.99999988,25.3333333 L3.99999988,20 L3.99999988,20 L4.00524622,19.8313559 C4.09225136,18.4371684 5.25055117,17.3333333 6.66666655,17.3333333 L6.66666655,17.3333333 Z M25.3333332,17.3333333 C26.8060918,17.3333333 27.9999998,18.5272404 27.9999998,20.0000004 L27.9999998,20.0000004 L27.9999998,25.3333333 C27.9999998,26.8060937 26.8060931,28.0000004 25.3333332,28.0000004 L25.3333332,28.0000004 L19.9999999,28.0000004 C18.5272412,28.0000004 17.3333332,26.8060937 17.3333332,25.3333333 L17.3333332,25.3333333 L17.3333332,20 L17.3333332,20 L17.3385796,19.8313559 C17.4255847,18.4371684 18.5838845,17.3333333 19.9999999,17.3333333 L19.9999999,17.3333333 Z M11.9999999,4 C13.4727584,4 14.6666664,5.19390707 14.6666664,6.66666707 L14.6666664,6.66666707 L14.6666664,12 C14.6666664,13.4727604 13.4727598,14.6666671 11.9999999,14.6666671 L11.9999999,14.6666671 L6.66666655,14.6666671 C5.19390788,14.6666671 3.99999988,13.4727604 3.99999988,12 L3.99999988,12 L3.99999988,6.66666667 L3.99999988,6.66666667 L4.00524622,6.49802254 C4.09225136,5.10383506 5.25055117,4 6.66666655,4 L6.66666655,4 Z M25.3333332,4 C26.8060918,4 27.9999998,5.19390707 27.9999998,6.66666707 L27.9999998,6.66666707 L27.9999998,12 C27.9999998,13.4727604 26.8060931,14.6666671 25.3333332,14.6666671 L25.3333332,14.6666671 L19.9999999,14.6666671 C18.5272412,14.6666671 17.3333332,13.4727604 17.3333332,12 L17.3333332,12 L17.3333332,6.66666667 L17.3333332,6.66666667 L17.3385796,6.49802254 C17.4255847,5.10383506 18.5838845,4 19.9999999,4 L19.9999999,4 Z" id="Fill" fill="#1E1E50"></path>
                    </g>
                </g>
            </g>
        </g>
    </g>
</svg>