<?xml version="1.0" encoding="UTF-8"?>
<svg width="24px" height="24px" viewBox="0 0 24 24" version="1.1" xmlns="http://www.w3.org/2000/svg" xmlns:xlink="http://www.w3.org/1999/xlink">
    <title>EBFD3789-80D9-4020-9F2F-226763BE55A4</title>
    <g id="Pages" stroke="none" stroke-width="1" fill="none" fill-rule="evenodd">
        <g id="Home" transform="translate(-884.000000, -1210.000000)" fill-rule="nonzero">
            <g id="Group-5" transform="translate(60.000000, 971.000000)">
                <g id="Card/Style-#11" transform="translate(448.000000, 0.000000)">
                    <g id="Icon/News/Business" transform="translate(376.000000, 239.000000)">
                        <g id="bag" transform="translate(0.000000, 1.800000)">
                            <path d="M21.9999844,3.03126563 L17.0000156,3.03126563 L17.0000156,2.03123437 C17.0000156,0.92821875 16.1030625,0.03121875 15,0.03121875 L9,0.03121875 C7.89698437,0.03121875 6.99998438,0.928171875 6.99998438,2.03123437 L6.99998438,3.03121875 L2.00001563,3.03121875 C0.896953125,3.03126563 0,3.92821875 0,5.03123437 L0,8.03123437 C0,9.13429687 0.896953125,10.03125 2.00001563,10.03125 L10.0000312,10.03125 L10.0000312,9.53123437 C10.0000312,9.25485937 10.2236719,9.03121875 10.5000469,9.03121875 L13.5000469,9.03121875 C13.7764219,9.03121875 14.0000625,9.25485937 14.0000625,9.53123437 L14.0000625,10.03125 L22.0000781,10.03125 C23.1030469,10.03125 24,9.13429687 24,8.03123437 L24,5.03123437 C24,3.92821875 23.1030469,3.03126563 21.9999844,3.03126563 Z M15,3.03126563 L9,3.03126563 L9,2.03123437 L15,2.03123437 L15,3.03126563 Z" id="Shape" fill="#32BEF0"></path>
                            <path d="M23.7226406,10.5707812 C23.55225,10.4863125 23.348625,10.5058594 23.1982031,10.6200937 C22.84275,10.8891562 22.4286563,11.0312344 21.9999375,11.0312344 L14.0000156,11.0312344 L14.0000156,12.5312344 C14.0000156,12.8076094 13.776375,13.03125 13.5,13.03125 L10.5,13.03125 C10.223625,13.03125 9.99998438,12.8076094 9.99998438,12.5312344 L9.99998438,11.0312344 L2.00001563,11.0312344 C1.57129688,11.0312344 1.15725,10.8891562 0.80175,10.6200937 C0.650859375,10.504875 0.44775,10.4853281 0.2773125,10.5707812 C0.1074375,10.6552969 0,10.8285937 0,11.0185781 L0,18.0312656 C0,19.1342813 0.896953125,20.0312812 2.00001563,20.0312812 L22.0000312,20.0312812 C23.1030469,20.0312812 24.0000469,19.1343281 24.0000469,18.0312656 L24.0000469,11.0185781 C24.0000469,10.8285937 23.8925625,10.6552969 23.7226406,10.5707812 Z" id="Path" fill="#1E1E50"></path>
                        </g>
                    </g>
                </g>
            </g>
        </g>
    </g>
</svg>