<?xml version="1.0" encoding="UTF-8"?>
<svg width="32px" height="32px" viewBox="0 0 32 32" version="1.1" xmlns="http://www.w3.org/2000/svg" xmlns:xlink="http://www.w3.org/1999/xlink">
    <title>4191EBC4-64CB-4A60-B9E5-9ACA436FF909</title>
    <g id="Pages" stroke="none" stroke-width="1" fill="none" fill-rule="evenodd">
        <g id="Home" transform="translate(-584.000000, -843.000000)" fill-rule="nonzero">
            <g id="Group-3" transform="translate(60.000000, 751.000000)">
                <g id="Tab-Navigation/News-Tabs" transform="translate(0.000000, 92.000000)">
                    <g id="Tab-Navigation/--Tabs/Icon-+-Label-2-lines" transform="translate(480.000000, 0.000000)">
                        <g id="leaf" transform="translate(44.000000, 0.000000)">
                            <path d="M1.92350776,6.91294272 C3.10158428,9.58616591 5.09041572,12.2302681 7.87345605,13.3699579 C8.19113961,13.4990975 8.55184281,13.5959523 8.92247363,13.6766646 C9.66373526,12.5983484 10.5142006,11.723395 11.5102709,11.0067021 C12.3673216,10.3932888 13.2641489,9.91224355 14.1873837,9.53447777 C13.9226474,9.35368225 13.6447073,9.18902918 13.3534643,9.04051858 C12.195243,8.44970464 10.9410879,7.92991752 9.71995863,7.3713885 C10.8682523,7.6748667 12.1853154,7.7878639 13.283971,8.17851136 C13.9689762,8.423909 14.6010341,8.7629006 15.1900724,9.16646203 C16.9472927,8.58207279 18.7839007,8.30119404 20.6171665,8.08814589 C19.1313671,5.67969128 15.9611169,3.7458249 13.5718718,2.87090373 C11.0767322,1.95720836 8.25067218,1.84421116 5.47425026,1.56336469 C3.77331954,1.39222236 1.92347466,0.772384291 0.570010341,0.0492022095 C0.262254395,-0.115450854 -0.0653567735,0.158970918 0.0405377456,0.491505536 C0.705720786,2.56739325 1.04325957,4.91773501 1.92350776,6.91294272 Z" id="Path" fill="#1E1E50"></path>
                            <path d="M31.2596319,6.59655056 C28.129092,8.25599516 24.538606,8.45939012 21.0209555,8.85326607 C19.3035119,9.04697556 17.6025481,9.28585164 15.9843144,9.76370066 C15.6335388,9.8669801 15.2827963,9.98323808 14.938606,10.1123777 C13.916062,10.4933397 12.9299193,10.9937559 12.0000331,11.6620536 C11.1264033,12.2883487 10.4116153,13.030934 9.80934023,13.8477423 C8.84967115,15.1520206 8.181212,16.6532691 7.63188418,18.2126627 C6.62919545,21.0440175 6.16921613,24.0529715 6.25856463,27.0458153 C6.29496587,28.2597281 6.3148211,29.5220683 6.62257704,30.7069246 C6.69207032,30.9684324 6.7582544,31.3009347 6.96673423,31.4946442 C7.23808893,31.7496951 7.72454188,31.4881873 7.61533816,31.1169107 C6.82774767,28.4986042 7.31750982,25.4380266 8.40623785,22.9359457 C9.65711686,20.0593276 12.0728356,18.3482271 15.0246453,17.3054567 C15.8089266,17.0278064 16.609787,16.7856695 17.423818,16.5564466 C17.440364,16.5500219 17.45691,16.5500219 17.473456,16.5500219 C17.635607,16.5500219 17.7051003,16.782441 17.5363309,16.8567286 C16.5766618,17.279661 15.6236112,17.7058219 14.7168563,18.1674962 C10.2759049,20.4274402 8.33671148,25.6898812 10.001241,25.6898812 C10.1369514,25.6898812 10.2957601,25.6543678 10.4777663,25.5801125 C13.0457084,24.5437667 16.0967942,24.5341136 18.919545,24.0240119 C19.9123061,23.8464449 20.8785936,23.604308 21.7853485,23.23626 C25.3857622,21.7705249 27.9603226,18.9036245 29.4924509,15.4555956 C30.6341262,12.882488 31.0775595,9.84447751 31.9412616,7.17125432 C32.0537746,6.82903423 31.8055843,6.53527379 31.5011375,6.53527379 C31.425092,6.53198073 31.3423619,6.55138396 31.2596319,6.59655056 Z" id="Path" fill="#32BEF0"></path>
                        </g>
                    </g>
                </g>
            </g>
        </g>
    </g>
</svg>