<?xml version="1.0" encoding="UTF-8"?>
<svg width="32px" height="32px" viewBox="0 0 32 32" version="1.1" xmlns="http://www.w3.org/2000/svg" xmlns:xlink="http://www.w3.org/1999/xlink">
    <title>B3493692-EDAF-4839-84DB-9253C2D42D7C</title>
    <g id="Pages" stroke="none" stroke-width="1" fill="none" fill-rule="evenodd">
        <g id="Home" transform="translate(-704.000000, -843.000000)" fill-rule="nonzero">
            <g id="Group-3" transform="translate(60.000000, 751.000000)">
                <g id="Tab-Navigation/News-Tabs" transform="translate(0.000000, 92.000000)">
                    <g id="Tab-Navigation/--Tabs/Icon-+-Label-2-lines" transform="translate(600.000000, 0.000000)">
                        <g id="Icon/News/Fun" transform="translate(44.000000, 0.000000)">
                            <g id="confetti" transform="translate(0.000000, -0.000000)">
                                <path d="M6.67333865,13.767012 L3.54218327,22.1188845 L3.54218327,22.1195219 C4.30839841,25.1805578 5.99254183,27.8865339 8.37660558,29.9276494 L12.3052112,28.454502 C8.13239841,24.7170677 6.07279681,19.2196972 6.67333865,13.767012 Z" id="Path" fill="#1E1E50"></path>
                                <path d="M2.48210359,24.9459761 L0.0821035857,31.3453386 C-0.204749004,32.1096414 0.54298008,32.8656574 1.31301992,32.576255 L6.37628685,30.6779283 C4.67799203,29.0296096 3.36057371,27.065243 2.48210359,24.9459761 Z" id="Path" fill="#1E1E50"></path>
                                <path d="M13.3856892,12.9880478 L9.81660558,9.41896414 C6.92283665,15.9465817 8.90116335,23.4076175 14.360988,27.6838247 L18.1703904,26.2552988 C14.8247968,22.8003187 13.0152669,17.9778167 13.3856892,12.9880478 L13.3856892,12.9880478 Z" id="Path" fill="#1E1E50"></path>
                                <path d="M15.2527809,14.8551394 C15.3993944,18.91251 17.1664064,22.7467729 20.1560478,25.5101195 L20.1566853,25.5101195 L22.9487171,24.4634263 C23.6008287,24.2186454 23.7793147,23.3816733 23.2891155,22.8914741 L15.2527809,14.8551394 Z" id="Path" fill="#1E1E50"></path>
                                <path d="M22.2365578,17.8591235 C22.6099761,18.2325418 23.2153625,18.2325418 23.5887809,17.8591235 C27.1860398,14.2618645 30.6887649,15.3740239 30.723761,15.3856255 C31.2247331,15.5525737 31.766247,15.2818486 31.933259,14.7808765 C32.1003347,14.2800319 31.8294821,13.7383904 31.32851,13.5713785 C31.1399522,13.5085896 26.6603347,12.0831235 22.2366215,16.5069004 C21.8631394,16.880255 21.8630757,17.4857689 22.2365578,17.8591235 L22.2365578,17.8591235 Z" id="Path" fill="#32BEF0"></path>
                                <path d="M16.1515857,10.4216733 C20.57549,5.99840637 19.1495139,1.51840637 19.0870438,1.32972112 C18.9200319,0.828685259 18.3781992,0.558406375 17.8771633,0.725418327 C17.3767649,0.892430279 17.1058486,1.4336255 17.2728606,1.93466135 C17.2843347,1.96972112 18.3966853,5.47250996 14.7989163,9.06964143 C14.4278566,9.4407012 14.4240956,10.0457052 14.7989163,10.4216733 C15.1743108,10.797004 15.7791873,10.7940717 16.1515857,10.4216733 L16.1515857,10.4216733 Z" id="Path" fill="#32BEF0"></path>
                                <path d="M18.1798247,12.4502311 C17.8064064,12.8236494 17.8064064,13.4290359 18.1798247,13.8024542 C18.5498008,14.172494 19.1509801,14.1773386 19.5263745,13.8081275 C20.0203347,13.562008 21.5535299,14.4851633 22.4056096,13.6334024 C23.24851,12.7904382 22.3529562,11.2884143 22.5766375,10.762008 C23.103745,10.537753 24.6051952,11.433753 25.4480956,10.5909163 C26.2911873,9.74795219 25.3955697,8.24592829 25.619251,7.71945817 C26.1471235,7.49513944 27.647745,8.39126693 28.4906454,7.54836653 C29.3337371,6.70540239 28.4381195,5.20337849 28.6618008,4.67690837 C29.1865498,4.45373705 30.6909323,5.3478247 31.5333227,4.50575299 C32.3850199,3.65392829 31.4635857,2.11799203 31.7079203,1.62658167 C32.0757291,1.25278088 32.073753,0.651601594 31.702247,0.280031873 C31.3288924,-0.0933864542 30.7234422,-0.0933864542 30.3500239,0.280031873 C29.5963665,1.03368924 29.7438088,2.09765737 29.8857689,2.85832669 C29.1250996,2.71636653 28.0611952,2.5689243 27.3075378,3.32251793 C26.5538805,4.0761753 26.7013227,5.14014343 26.8432829,5.90081275 C26.0826135,5.75891633 25.0185817,5.61134661 24.264988,6.36506773 C23.5113307,7.1187251 23.6588367,8.18269323 23.8007968,8.94336255 C23.04,8.80140239 21.9760956,8.65389641 21.222502,9.40755378 C20.4688446,10.1612112 20.6162869,11.2251793 20.758247,11.9858486 C19.9975139,11.8440159 18.9334183,11.6965737 18.1798247,12.4502311 Z" id="Path" fill="#32BEF0"></path>
                                <path d="M23.5887809,4.33676494 C23.9621992,3.96334661 23.9621992,3.35796016 23.5887809,2.98454183 C23.2153625,2.61112351 22.6099761,2.61112351 22.2365578,2.98454183 C21.8631394,3.35796016 21.8631394,3.96334661 22.2365578,4.33676494 C22.6099761,4.71018327 23.2153625,4.71018327 23.5887809,4.33676494 Z" id="Path" fill="#32BEF0"></path>
                                <circle id="Oval" fill="#32BEF0" cx="29.6738167" cy="10.4218645" r="1"></circle>
                                <path d="M27.6454502,19.2114104 C27.2720319,19.5848287 27.2720319,20.1902151 27.6454502,20.5636335 C28.0188685,20.9370518 28.624255,20.9370518 28.9976733,20.5636335 C29.3710916,20.1902151 29.3710916,19.5848287 28.9976733,19.2114104 C28.6243187,18.837992 28.0188685,18.837992 27.6454502,19.2114104 Z" id="Path" fill="#32BEF0"></path>
                                <path d="M14.1230916,5.68898805 C14.49651,5.31556972 14.49651,4.71018327 14.1230916,4.33676494 C13.7496733,3.96334661 13.1442869,3.96334661 12.7708685,4.33676494 C12.3974502,4.71011952 12.3974502,5.31556972 12.7708685,5.68898805 C13.1442869,6.06240637 13.7497371,6.06240637 14.1230916,5.68898805 L14.1230916,5.68898805 Z" id="Path" fill="#32BEF0"></path>
                            </g>
                        </g>
                    </g>
                </g>
            </g>
        </g>
    </g>
</svg>