<?xml version="1.0" encoding="UTF-8"?>
<svg width="32px" height="32px" viewBox="0 0 32 32" version="1.1" xmlns="http://www.w3.org/2000/svg" xmlns:xlink="http://www.w3.org/1999/xlink">
    <title>8424F694-17E6-4823-AD86-DF73722017CE</title>
    <g id="Pages" stroke="none" stroke-width="1" fill="none" fill-rule="evenodd">
        <g id="Home" transform="translate(-464.000000, -843.000000)" fill-rule="nonzero">
            <g id="Group-3" transform="translate(60.000000, 751.000000)">
                <g id="Tab-Navigation/News-Tabs" transform="translate(0.000000, 92.000000)">
                    <g id="Tab-Navigation/--Tabs/Icon-+-Label-2-lines" transform="translate(360.000000, 0.000000)">
                        <g id="Icon/News/Community" transform="translate(44.000000, 0.000000)">
                            <g id="agreement" transform="translate(0.000000, 4.800000)">
                                <path d="M31.9756129,2.90896774 L31.9756129,12.5883226 C31.9756129,12.5883226 29.904,12.9964516 29.4772258,13.050129 C29.0518065,13.1036774 27.7149032,13.5353548 26.746,12.6040645 C25.2518065,11.172 19.9429677,5.89245161 19.9429677,5.89245161 C19.9429677,5.89245161 19.0276129,4.99425806 17.557871,5.77051613 C16.2087097,6.4816129 14.2087742,7.52374194 13.3734194,7.92954839 C11.7942581,8.77006452 10.4854194,7.43651613 10.4854194,6.42070968 C10.4854194,5.63277419 10.9770968,5.098 11.6799355,4.70470968 C13.5847097,3.55 17.5994194,1.29651613 19.2715484,0.408064516 C20.2879355,-0.132516129 21.0202581,-0.17883871 22.4156774,0.996709677 C24.1342581,2.44206452 25.6636774,3.75954839 25.6636774,3.75954839 C25.6636774,3.75954839 26.1625161,4.17587097 26.9580645,4.00819355 C28.9116129,3.59516129 31.9756129,2.90896774 31.9756129,2.90896774 Z" id="Path" fill="#1E1E50"></path>
                                <path d="M10.8450323,19.3096774 C11.102129,18.6491613 11.0161935,17.9103871 10.5232903,17.4035484 C10.0803871,16.9501935 9.43374194,16.8307097 8.81716129,16.972 C8.9896129,16.3604516 8.8943871,15.7095484 8.44909677,15.2501935 C8.00483871,14.798 7.35941935,14.676129 6.74290323,14.8187097 C6.91406452,14.2080645 6.81909677,13.5572258 6.37354839,13.0992258 C5.67587097,12.3836129 4.46909677,12.4143226 3.67632258,13.17 C2.88774194,13.9267097 2.38258065,15.2976774 3.0863871,16.1046452 C3.78903226,16.9075484 4.5963871,16.4190323 5.21187097,16.2787742 C5.04064516,16.8894194 4.5276129,17.4574194 5.15941935,18.2567097 C5.79064516,19.0563871 6.66935484,18.5712258 7.28548387,18.4322581 C7.11367742,19.0405806 6.62303226,19.6656129 7.23058065,20.4067097 C7.8436129,21.1500645 8.84767742,20.754 9.51083871,20.548 C9.25490323,21.206 8.70709677,21.9152903 9.41090323,22.710129 C10.1136129,23.5107097 11.7375484,23.1403226 12.5307742,22.3834839 C13.321871,21.6267742 13.3978065,20.4274839 12.702,19.7096129 C12.2216129,19.2170968 11.5054839,19.1025161 10.8450323,19.3096774 Z" id="Path" fill="#1E1E50"></path>
                                <path d="M25.3188387,14.2739355 C19.5846452,8.53967742 22.2817419,11.2379355 19.195871,8.14541935 C19.195871,8.14541935 18.2684516,7.22212903 17.046129,7.75845161 C16.1880645,8.13445161 15.0833548,8.64690323 14.252129,9.03812903 C13.3387097,9.51709677 12.6813548,9.66535484 12.3727097,9.66329032 C10.6069032,9.65174194 9.17425806,8.23245161 9.17425806,6.4683871 C9.17425806,5.324 9.78180645,4.32767742 10.6879355,3.76212903 C11.962129,2.8803871 14.8950323,1.3203871 14.8950323,1.3203871 C14.8950323,1.3203871 14.0015484,0.188193548 12.0442581,0.188193548 C10.0875484,0.188193548 5.99941935,2.8663871 5.99941935,2.8663871 C5.99941935,2.8663871 4.83967742,3.60922581 3.18645161,2.94012903 L0,1.83051613 L0,12.9064516 C0,12.9064516 0.909870968,13.1698065 1.72741935,13.5037419 C1.91206452,12.9771613 2.21,12.4909032 2.62329032,12.0892903 C3.9796129,10.7974194 6.22774194,10.784 7.46174194,12.0546452 C7.83348387,12.4409032 8.09290323,12.9016774 8.22529032,13.4110323 C8.72251613,13.5645161 9.17290323,13.8363871 9.53483871,14.2092903 C9.90767742,14.5929677 10.166129,15.0563226 10.2996129,15.5630968 C10.7962581,15.7167097 11.246,15.9896129 11.6091613,16.3627742 C12.018129,16.7845161 12.2905806,17.2939355 12.4178065,17.845871 C12.9369677,17.9970968 13.406129,18.2784516 13.784,18.6647742 C14.5256129,19.4265161 14.7888387,20.46 14.6293548,21.4569032 C14.6306452,21.4569032 14.6330968,21.4569032 14.6342581,21.4591613 C14.6463871,21.4750323 15.0937419,21.9737419 15.3727097,22.2550323 C15.9194194,22.8022581 16.812129,22.8022581 17.3605161,22.2550323 C17.9052903,21.708 17.9076774,20.8170323 17.3605161,20.2672258 C17.3409032,20.2476774 15.388129,18.2050968 15.5452903,18.0467097 C15.7012903,17.8894194 18.1892258,20.4781935 18.2355484,20.5255484 C18.7815484,21.0716774 19.6736774,21.0716774 20.222129,20.5255484 C20.7692903,19.9785161 20.768129,19.0875484 20.222129,18.5390323 C20.1952903,18.5134839 20.0832903,18.4061935 20.0417419,18.3634839 C20.0417419,18.3634839 17.5750323,16.1660645 17.7627742,15.9783226 C17.9528387,15.7894194 21.0168387,18.6487742 21.0218065,18.6487742 C21.5725806,19.1447742 22.4209677,19.1410968 22.9508387,18.6109677 C23.4663871,18.0954839 23.4774194,17.2800645 23.0203871,16.7305806 C23.0107097,16.7013548 20.6852903,14.2711613 20.8667742,14.0883226 C21.0509032,13.9030968 23.351871,16.2723871 23.3567097,16.2772903 C23.9014839,16.8232903 24.7948387,16.8232903 25.3432903,16.2772903 C25.8892903,15.7312258 25.8892903,14.8391613 25.3432903,14.2882581 C25.335871,14.2836129 25.326129,14.2787097 25.3188387,14.2739355 Z" id="Path" fill="#32BEF0"></path>
                            </g>
                        </g>
                    </g>
                </g>
            </g>
        </g>
    </g>
</svg>