<?xml version="1.0" encoding="UTF-8"?>
<svg width="32px" height="32px" viewBox="0 0 32 32" version="1.1" xmlns="http://www.w3.org/2000/svg" xmlns:xlink="http://www.w3.org/1999/xlink">
    <title>B047C639-6E5B-42A0-AE90-08556646141F</title>
    <g id="Pages" stroke="none" stroke-width="1" fill="none" fill-rule="evenodd">
        <g id="Home" transform="translate(-824.000000, -843.000000)" fill-rule="nonzero">
            <g id="Group-3" transform="translate(60.000000, 751.000000)">
                <g id="Tab-Navigation/News-Tabs" transform="translate(0.000000, 92.000000)">
                    <g id="Tab-Navigation/--Tabs/Icon-+-Label-2-lines" transform="translate(720.000000, 0.000000)">
                        <g id="heart" transform="translate(44.000000, 0.000000)">
                            <path d="M15.9609513,2.86582161 C8.99898635,-3.71713187 0.146962963,2.06684158 0.00180896686,9.90794584 C-0.0351812865,11.9062726 0.498401559,13.8528086 1.56051462,15.6473442 L8.44481871,15.6473442 L9.66930214,13.4409778 C10.0248577,12.8004046 10.8853021,12.7797692 11.2610058,13.4183868 L13.8445224,17.8073147 L17.6104795,9.21254728 C17.9389006,8.46259312 18.9176764,8.43878826 19.2799064,9.16601654 L22.5081014,15.6473442 L30.3613879,15.6473442 C36.1789006,5.81789368 24.6815439,-5.37989779 15.9609513,2.86582161 Z" id="Path" fill="#32BEF0"></path>
                            <path d="M21.1254269,17.1384184 L18.5095361,11.8864464 L14.8104483,20.3287414 C14.4957505,21.0470007 13.5701209,21.1093789 13.1754542,20.4387967 L10.4950643,15.8853253 L9.77690448,17.1792845 C9.60779727,17.4839597 9.30326706,17.6703525 8.97459649,17.6703525 L3.04068616,17.6703525 C3.22669786,17.8808198 2.23532164,16.8112196 15.3009903,30.8630989 C15.6659025,31.255643 16.2558129,31.2557104 16.6207875,30.8630989 C29.4854113,17.027419 28.6954542,17.8804152 28.8810916,17.6703525 L21.9492554,17.6703525 C21.6049903,17.6704199 21.2886082,17.4660892 21.1254269,17.1384184 Z" id="Path" fill="#1E1E50"></path>
                        </g>
                    </g>
                </g>
            </g>
        </g>
    </g>
</svg>