<?xml version="1.0" encoding="UTF-8"?>
<svg width="32px" height="32px" viewBox="0 0 32 32" version="1.1" xmlns="http://www.w3.org/2000/svg" xmlns:xlink="http://www.w3.org/1999/xlink">
    <title>A7C58CA1-F33B-4A99-A794-FBAE9AA28490</title>
    <g id="Pages" stroke="none" stroke-width="1" fill="none" fill-rule="evenodd">
        <g id="Home" transform="translate(-944.000000, -843.000000)" fill-rule="nonzero">
            <g id="Group-3" transform="translate(60.000000, 751.000000)">
                <g id="Tab-Navigation/News-Tabs" transform="translate(0.000000, 92.000000)">
                    <g id="Tab-Navigation/--Tabs/Icon-+-Label-2-lines" transform="translate(840.000000, 0.000000)">
                        <g id="Icon/News/Innovation" transform="translate(44.000000, 0.000000)">
                            <g id="lamp" transform="translate(4.800000, 0.000000)">
                                <path d="M10.8474576,31.5562404 C12.1742989,31.5562404 13.29547,30.6616949 13.6415408,29.4442527 L8.05362096,29.4442527 C8.40012327,30.6613251 9.52209553,31.5562404 10.8474576,31.5562404 Z" id="Path" fill="#1E1E50"></path>
                                <path d="M4.97171032,24.6902928 C4.97171032,26.2914022 6.27654854,27.5952542 7.8766718,27.5952542 L13.8181202,27.5952542 C15.4192296,27.5952542 16.7230817,26.2904777 16.7230817,24.6902928 L16.7230817,23.6343297 L4.97171032,23.6343297 L4.97171032,24.6902928 Z" id="Path" fill="#1E1E50"></path>
                                <path d="M12.0415408,6.97392912 C11.8730971,6.70138675 11.857812,6.36104777 12.0011094,6.074453 L13.3125424,3.45140216 L9.4383359,3.45140216 L7.39211094,7.54385208 L8.86699538,7.54385208 C9.37756549,7.54385208 9.79149461,7.9577812 9.79149461,8.46835131 L9.79149461,11.1876117 L13.566718,7.41238829 L12.8279815,7.41238829 C12.5075501,7.41244992 12.2099846,7.24653313 12.0415408,6.97392912 Z" id="Path" fill="#F7F8F7"></path>
                                <path d="M10.8474576,0 C4.87747304,0 0.0205238829,4.85694915 0.0205238829,10.8269337 C0.0205238829,13.7290601 1.1550077,16.4533128 3.21534669,18.4981202 C4.11075501,19.3858243 4.69941448,20.5493374 4.89744222,21.7853313 L16.8010478,21.7853313 C16.9989522,20.5494607 17.5873652,19.3866256 18.4832049,18.4993529 C20.5410786,16.4514638 21.6743297,13.7266564 21.6743297,10.8269337 C21.6743297,4.85694915 16.8174422,0 10.8474576,0 Z M16.4523267,11.4806163 L9.52067797,18.4123267 C9.23882897,18.6942373 8.83531587,18.7461325 8.51315871,18.6127581 C8.16770416,18.4696456 7.94243451,18.1325116 7.94243451,17.7586441 L7.94243451,13.7318952 L5.89620955,13.7318952 C5.57577812,13.7318952 5.27821263,13.5659784 5.10976888,13.2934361 C4.94132512,13.0208937 4.92604006,12.6805547 5.06927581,12.3939599 L8.04,6.45251156 C8.19661017,6.13929122 8.51673344,5.94144838 8.86693374,5.94144838 L14.8083821,5.94144838 C15.1287519,5.94144838 15.4263174,6.10736518 15.5948228,6.37990755 C15.7632666,6.65244992 15.7785516,6.99278891 15.6352542,7.27938367 L14.3238213,9.90243451 L15.7986441,9.90243451 C16.1725732,9.90243451 16.5096456,10.1277042 16.6527581,10.4731587 C16.7958089,10.8185516 16.7167334,11.2162096 16.4523267,11.4806163 L16.4523267,11.4806163 Z" id="Shape" fill="#32BEF0"></path>
                            </g>
                        </g>
                    </g>
                </g>
            </g>
        </g>
    </g>
</svg>