<?xml version="1.0" encoding="UTF-8"?>
<svg width="32px" height="32px" viewBox="0 0 32 32" version="1.1" xmlns="http://www.w3.org/2000/svg" xmlns:xlink="http://www.w3.org/1999/xlink">
    <title>E7DF8E67-ADE6-44B0-B306-161EB45E4E09</title>
    <g id="Pages" stroke="none" stroke-width="1" fill="none" fill-rule="evenodd">
        <g id="Home" transform="translate(-1064.000000, -843.000000)" fill-rule="nonzero">
            <g id="Group-3" transform="translate(60.000000, 751.000000)">
                <g id="Tab-Navigation/News-Tabs" transform="translate(0.000000, 92.000000)">
                    <g id="Tab-Navigation/--Tabs/Icon-+-Label-2-lines" transform="translate(960.000000, 0.000000)">
                        <g id="Icon/News/People" transform="translate(44.000000, 0.000000)">
                            <g id="people" transform="translate(0.000000, 2.400000)">
                                <path d="M27.380625,14.7075 L24.905875,14.7075 C25.158125,15.398125 25.2959375,16.1434375 25.2959375,16.92025 L25.2959375,26.273375 C25.2959375,26.59725 25.2395625,26.908125 25.137,27.19725 L29.2283125,27.19725 C30.756625,27.19725 31.9999375,25.953875 31.9999375,24.425625 L31.9999375,19.3268125 C31.9999375,16.77975 29.92775,14.7075 27.380625,14.7075 Z" id="Path" fill="#1E1E50"></path>
                                <path d="M6.7040625,16.9203125 C6.7040625,16.1434375 6.841875,15.3981875 7.094125,14.7075625 L4.619375,14.7075625 C2.07225,14.7075625 0,16.7798125 0,19.3269375 L0,24.42575 C0,25.954 1.2433125,27.197375 2.771625,27.197375 L6.863,27.197375 C6.7604375,26.908125 6.7040625,26.5973125 6.7040625,26.2734375 L6.7040625,16.9203125 Z" id="Path" fill="#1E1E50"></path>
                                <path d="M18.8288125,12.3009375 L13.1711875,12.3009375 C10.6240625,12.3009375 8.5518125,14.3731875 8.5518125,16.9203125 L8.5518125,26.2734375 C8.5518125,26.783625 8.9654375,27.1973125 9.4756875,27.1973125 L22.5243125,27.1973125 C23.0345625,27.1973125 23.4481875,26.7836875 23.4481875,26.2734375 L23.4481875,16.9203125 C23.4481875,14.3731875 21.3759375,12.3009375 18.8288125,12.3009375 Z" id="Path" fill="#32BEF0"></path>
                                <path d="M16,0.0525 C12.93675,0.0525 10.444625,2.544625 10.444625,5.6079375 C10.444625,7.68575 11.5914375,9.5004375 13.2850625,10.4531875 C14.088375,10.9050625 15.0145,11.1633125 16,11.1633125 C16.9855,11.1633125 17.911625,10.9050625 18.7149375,10.4531875 C20.408625,9.5004375 21.555375,7.6856875 21.555375,5.6079375 C21.555375,2.5446875 19.06325,0.0525 16,0.0525 Z" id="Path" fill="#32BEF0"></path>
                                <path d="M6.244875,5.2305625 C3.9539375,5.2305625 2.0901875,7.0943125 2.0901875,9.38525 C2.0901875,11.6761875 3.9539375,13.5399375 6.244875,13.5399375 C6.826,13.5399375 7.379375,13.4195625 7.8820625,13.2031875 C8.7511875,12.829 9.4678125,12.166625 9.91125,11.3369375 C10.2225,10.754625 10.3995625,10.0903125 10.3995625,9.38525 C10.3995625,7.094375 8.5358125,5.2305625 6.244875,5.2305625 Z" id="Path" fill="#1E1E50"></path>
                                <path d="M25.755125,5.2305625 C23.4641875,5.2305625 21.6004375,7.0943125 21.6004375,9.38525 C21.6004375,10.090375 21.7775,10.7546875 22.08875,11.3369375 C22.5321875,12.1666875 23.2488125,12.8290625 24.1179375,13.2031875 C24.620625,13.4195625 25.174,13.5399375 25.755125,13.5399375 C28.0460625,13.5399375 29.9098125,11.6761875 29.9098125,9.38525 C29.9098125,7.0943125 28.0460625,5.2305625 25.755125,5.2305625 Z" id="Path" fill="#1E1E50"></path>
                            </g>
                        </g>
                    </g>
                </g>
            </g>
        </g>
    </g>
</svg>