<?xml version="1.0" encoding="UTF-8"?>
<svg width="32px" height="32px" viewBox="0 0 32 32" version="1.1" xmlns="http://www.w3.org/2000/svg" xmlns:xlink="http://www.w3.org/1999/xlink">
    <title>C552D637-37AB-48BC-8D09-8B78D7E9060D</title>
    <g id="Pages" stroke="none" stroke-width="1" fill="none" fill-rule="evenodd">
        <g id="Home" transform="translate(-1184.000000, -843.000000)">
            <g id="Group-3" transform="translate(60.000000, 751.000000)">
                <g id="Tab-Navigation/News-Tabs" transform="translate(0.000000, 92.000000)">
                    <g id="Tab-Navigation/--Tabs/Icon-+-Label-2-lines" transform="translate(1080.000000, 0.000000)">
                        <g id="Icon/HEX" transform="translate(44.000000, 0.000000)">
                            <polygon id="24pt-Bounding-Box" opacity="0" fill-rule="nonzero" points="0 0 32 0 32 32 0 32"></polygon>
                            <g id="Group">
                                <polygon id="Path" fill="#4664AF" points="11.0909091 15.1818182 0 11.5454545 15.9090909 0 15.9090909 11.6363636"></polygon>
                                <polygon id="Path" fill="#3AB449" transform="translate(23.954545, 7.590909) scale(-1, 1) translate(-23.954545, -7.590909) " points="27.0909091 15.1818182 16 11.5454545 31.9090909 0 31.9090909 11.6363636"></polygon>
                                <polygon id="Path-2" fill="#D71E37" points="20.9090909 15.1818182 32 11.6363636 25.9090909 30.2727273 19.0909091 20.8181818"></polygon>
                                <polygon id="Path-2" fill="#00A9B3" transform="translate(6.454545, 20.954545) scale(-1, 1) translate(-6.454545, -20.954545) " points="1.81818182 15.1818182 12.9090909 11.6363636 6.81818182 30.2727273 0 20.8181818"></polygon>
                                <polygon id="Path-3" fill="#F48320" points="13 20.9090909 6.18181818 30.2727273 25.8181818 30.2727273 19 20.9090909"></polygon>
                            </g>
                        </g>
                    </g>
                </g>
            </g>
        </g>
    </g>
</svg>