<?xml version="1.0" encoding="UTF-8"?>
<svg width="32px" height="32px" viewBox="0 0 32 32" version="1.1" xmlns="http://www.w3.org/2000/svg" xmlns:xlink="http://www.w3.org/1999/xlink">
    <title>374590AB-057E-4109-9DAA-95AB83A07206</title>
    <g id="Pages" stroke="none" stroke-width="1" fill="none" fill-rule="evenodd">
        <g id="Home" transform="translate(-1304.000000, -843.000000)" fill-rule="nonzero">
            <g id="Group-3" transform="translate(60.000000, 751.000000)">
                <g id="Tab-Navigation/News-Tabs" transform="translate(0.000000, 92.000000)">
                    <g id="Tab-Navigation/--Tabs/Icon-+-Label-2-lines" transform="translate(1200.000000, 0.000000)">
                        <g id="spotlight" transform="translate(44.000000, 0.000000)">
                            <path d="M3.36181638,15.4824219 L4.68774413,16.8083496 L1.373291,20.123291 C0.488037125,21.0075684 0,22.1850586 0,23.4375 C0,24.6899414 0.488037125,25.8674316 1.373291,26.751709 C2.03271487,27.4116211 2.85522462,27.8493652 3.75,28.0300293 L3.75,30.125 L0,30.125 L0,32 L9.375,32 L9.375,30.125 L5.625,30.125 L5.625,28.0300293 C6.51977538,27.8493652 7.34252931,27.4116211 8.001709,26.751709 L11.3166504,23.4372559 L12.6425781,24.7631836 L13.9682617,23.4375 L4.6875,14.1567382 L3.36181638,15.4824219 Z" id="Path" fill="#1E1E50"></path>
                            <polygon id="Path" fill="#1E1E50" points="31.4506836 0 18.7385254 0 22.9760742 8.47460938"></polygon>
                            <polygon id="Path" fill="#1E1E50" points="7.96557619 14.7834472 12.2539063 19.0717774 14.6115723 16.7141113 9.53759763 11.6398926"></polygon>
                            <polygon id="Path" fill="#32BEF0" points="24.0341797 14.7836914 16.6420899 0 0.549316375 0 19.7460938 19.0717774"></polygon>
                            <path d="M28.25,28.0300293 C29.1447754,27.8493653 29.9675293,27.4116211 30.626709,26.751709 C31.5119629,25.8674316 32,24.6899414 32,23.4375 C32,22.1850586 31.5119629,21.0075684 30.626709,20.123291 L27.3122559,16.8083496 L28.6381836,15.4824219 L27.3125,14.1567383 L18.0317382,23.4375 L19.3574219,24.7631836 L20.6833496,23.4372559 L23.998291,26.751709 C24.6577149,27.4116211 25.4802246,27.8493652 26.375,28.0300293 L26.375,30.125 L22.625,30.125 L22.625,32 L32,32 L32,30.125 L28.25,30.125 L28.25,28.0300293 Z" id="Path" fill="#32BEF0"></path>
                        </g>
                    </g>
                </g>
            </g>
        </g>
    </g>
</svg>