<?xml version="1.0" encoding="UTF-8"?>
<svg width="20px" height="20px" viewBox="0 0 20 20" version="1.1" xmlns="http://www.w3.org/2000/svg" xmlns:xlink="http://www.w3.org/1999/xlink">
    <title>D2C4A440-8615-4CAF-95AD-9AA36B234E21</title>
    <g id="Pages" stroke="none" stroke-width="1" fill="none" fill-rule="evenodd">
        <g id="Home" transform="translate(-1309.000000, -34.000000)">
            <g id="Group-2" transform="translate(1299.000000, 24.000000)">
                <g id="Icon/Person/Fill" transform="translate(10.000000, 10.000000)">
                    <polygon id="24pt-Bounding-Box" opacity="0" fill-rule="nonzero" points="0 0 20 0 20 20 0 20"></polygon>
                    <path d="M9.99999996,10.8333333 C13.2216583,10.8333333 15.8333333,13.4450083 15.8333333,16.6666667 L15.8333333,16.6666667 L15.8268405,16.7711983 C15.7754183,17.1820959 15.4248346,17.5000001 15,17.5000001 L15,17.5000001 L4.99999996,17.5000001 C4.53976246,17.5000001 4.16666663,17.1269043 4.16666663,16.6666668 L4.16666663,16.6666668 L4.17087889,16.4429147 C4.28846979,13.3249476 6.85326392,10.8333333 9.99999996,10.8333333 Z M9.99999985,2.5 C11.8409499,2.5 13.3333332,3.99238333 13.3333332,5.83333333 C13.3333332,7.67428333 11.8409499,9.16666667 9.99999985,9.16666667 L9.99999985,9.16666667 L9.81710911,9.16173442 C8.06121584,9.06678712 6.66666652,7.61291783 6.66666652,5.83333283 L6.66666652,5.83333283 L6.67159877,5.65044259 C6.76654604,3.89454931 8.22041485,2.5 9.99999985,2.5 Z" id="Fill" fill="#FFFFFF"></path>
                </g>
            </g>
        </g>
    </g>
</svg>